<?xml version="1.0" encoding="iso-8859-1"?>
<!-- Generator: Adobe Illustrator 19.0.0, SVG Export Plug-In . SVG Version: 6.00 Build 0)  -->
<svg version="1.1" id="Capa_1" xmlns="http://www.w3.org/2000/svg" xmlns:xlink="http://www.w3.org/1999/xlink" x="0px" y="0px"
	 viewBox="0 0 432 432" style="enable-background:new 0 0 432 432;" xml:space="preserve">
<g>
	<g>
		<path d="M176,88H80c-17.676,0-32,14.326-32,32v44.168C18.762,187.625,0,223.598,0,264c0,70.691,57.309,128,128,128
			c21.031,0,40.824-5.168,58.328-14.156c-9.172-13.16-16.114-27.935-20.473-43.805C154.531,340.188,141.762,344,128,344
			c-44.114,0-80-35.886-80-80c0-42.92,34.05-77.782,76.519-79.649l0.282-0.351h60.461l0.133-0.141
			C197.984,183.124,208,172.777,208,160v-40C208,102.327,193.672,88,176,88z M128,360c4.418,0,8,3.582,8,8s-3.582,8-8,8
			s-8-3.582-8-8S123.582,360,128,360z M128,152c-8.84,0-16-7.164-16-16s7.16-16,16-16c8.836,0,16,7.164,16,16S136.836,152,128,152z"
			/>
	</g>
</g>
<g>
	<g>
		<path d="M304,43.666h-32c-0.129,0-0.25,0.037-0.379,0.037C271.77,42.472,272,41.268,272,40c0-17.602-14.402-32-32-32h-32
			c-9.606,0-18.16,4.379-24.035,11.137C178.086,12.379,169.535,8,159.926,8h-32c-17.598,0-32,14.398-32,32
			c0,17.601,14.402,32.001,32,32.001h32c9.61,0,18.16-4.379,24.039-11.138C189.84,67.622,198.394,72,208,72h32
			c0.129,0,0.246-0.035,0.375-0.039c-0.145,1.23-0.375,2.438-0.375,3.705c0,17.6,14.398,32,32,32h32c17.598,0,32-14.4,32-32
			C336,58.066,321.598,43.666,304,43.666z M159.926,56h-32c-8.82,0-16-7.178-16-16c0-8.822,7.18-16,16-16h32c8.824,0,16,7.178,16,16
			C175.926,48.823,168.75,56,159.926,56z M240,56h-32c-8.824,0-16-7.178-16-16c0-8.822,7.176-16,16-16h32c8.82,0,16,7.178,16,16
			C256,48.823,248.82,56,240,56z M304,91.667h-32c-8.824,0-16-7.178-16-16s7.176-16,16-16h32c8.82,0,16,7.178,16,16
			S312.82,91.667,304,91.667z"/>
	</g>
</g>
<g>
	<g>
		<path d="M396.676,207.876C390.516,222.048,376.41,232,360,232h-8.496C371.11,246.594,384,269.739,384,296
			c0,44.114-35.886,80-80,80s-80-35.886-80-80c0-42.92,34.05-77.782,76.519-79.649l0.282-0.351h60.461l0.133-0.141
			C373.984,215.124,384,204.777,384,192v-40c0-17.674-14.328-32-32-32h-96c-17.676,0-32,14.326-32,32v44.168
			c-29.238,23.457-48,59.43-48,99.832c0,70.691,57.309,128,128,128c70.691,0,128-57.309,128-128
			C432,261.813,418.516,230.834,396.676,207.876z M304,152c8.836,0,16,7.164,16,16s-7.164,16-16,16c-8.84,0-16-7.164-16-16
			S295.16,152,304,152z M304,408c-4.418,0-8-3.582-8-8s3.582-8,8-8s8,3.582,8,8S308.418,408,304,408z"/>
	</g>
</g>
<g>
</g>
<g>
</g>
<g>
</g>
<g>
</g>
<g>
</g>
<g>
</g>
<g>
</g>
<g>
</g>
<g>
</g>
<g>
</g>
<g>
</g>
<g>
</g>
<g>
</g>
<g>
</g>
<g>
</g>
</svg>
